  0
SECTION
  2
HEADER
  9
$ACADVER
  1
AC1015
  9
$ACADMAINTVER
 70
     6
  9
$DWGCODEPAGE
  3
ANSI_1252
  9
$INSBASE
 10
0.0
 20
0.0
 30
0.0
  9
$EXTMIN
 10
-0.2032000000000012
 20
-0.9652000000000001
 30
-0.5
  9
$EXTMAX
 10
46.7032
 20
19.7032
 30
0.5
  9
$LIMMIN
 10
0.0
 20
0.0
  9
$LIMMAX
 10
0.0
 20
0.0
  9
$ORTHOMODE
 70
     0
  9
$REGENMODE
 70
     1
  9
$FILLMODE
 70
     1
  9
$QTEXTMODE
 70
     0
  9
$MIRRTEXT
 70
     1
  9
$LTSCALE
 40
1.0
  9
$ATTMODE
 70
     1
  9
$TEXTSIZE
 40
0.2
  9
$TRACEWID
 40
0.05
  9
$TEXTSTYLE
  7
Standard
  9
$CLAYER
  8
0
  9
$CELTYPE
  6
ByBlock
  9
$CECOLOR
 62
   256
  9
$CELTSCALE
 40
1.0
  9
$DISPSILH
 70
     0
  9
$DIMSCALE
 40
1.0
  9
$DIMASZ
 40
0.18
  9
$DIMEXO
 40
0.0625
  9
$DIMDLI
 40
0.38
  9
$DIMRND
 40
0.0
  9
$DIMDLE
 40
0.0
  9
$DIMEXE
 40
0.18
  9
$DIMTP
 40
0.0
  9
$DIMTM
 40
0.0
  9
$DIMTXT
 40
0.18
  9
$DIMCEN
 40
0.09
  9
$DIMTSZ
 40
0.0
  9
$DIMTOL
 70
     0
  9
$DIMLIM
 70
     0
  9
$DIMTIH
 70
     1
  9
$DIMTOH
 70
     1
  9
$DIMSE1
 70
     0
  9
$DIMSE2
 70
     0
  9
$DIMTAD
 70
     0
  9
$DIMZIN
 70
     0
  9
$DIMBLK
  1
VDDIM_DEFAULT
  9
$DIMASO
 70
     1
  9
$DIMSHO
 70
     1
  9
$DIMPOST
  1

  9
$DIMAPOST
  1

  9
$DIMALT
 70
     0
  9
$DIMALTD
 70
     2
  9
$DIMALTF
 40
25.4
  9
$DIMLFAC
 40
1.0
  9
$DIMTOFL
 70
     1
  9
$DIMTVP
 40
0.0
  9
$DIMTIX
 70
     1
  9
$DIMSOXD
 70
     0
  9
$DIMSAH
 70
     0
  9
$DIMBLK1
  1

  9
$DIMBLK2
  1

  9
$DIMSTYLE
  2
Standard
  9
$DIMCLRD
 70
     0
  9
$DIMCLRE
 70
     0
  9
$DIMCLRT
 70
     0
  9
$DIMTFAC
 40
1.0
  9
$DIMGAP
 40
0.09
  9
$DIMJUST
 70
     0
  9
$DIMSD1
 70
     0
  9
$DIMSD2
 70
     0
  9
$DIMTOLJ
 70
     1
  9
$DIMTZIN
 70
     0
  9
$DIMALTZ
 70
     0
  9
$DIMALTTZ
 70
     0
  9
$DIMUPT
 70
     1
  9
$DIMDEC
 70
     4
  9
$DIMTDEC
 70
     4
  9
$DIMALTU
 70
     2
  9
$DIMALTTD
 70
     2
  9
$DIMTXSTY
  7
Standard
  9
$DIMAUNIT
 70
     0
  9
$DIMADEC
 70
     0
  9
$DIMALTRND
 40
0.0
  9
$DIMAZIN
 70
     0
  9
$DIMDSEP
 70
    46
  9
$DIMATFIT
 70
     3
  9
$DIMFRAC
 70
     0
  9
$DIMLDRBLK
  1

  9
$DIMLUNIT
 70
     2
  9
$DIMLWD
 70
    -2
  9
$DIMLWE
 70
    -2
  9
$DIMTMOVE
 70
     0
  9
$LUNITS
 70
     2
  9
$LUPREC
 70
     4
  9
$SKETCHINC
 40
0.1
  9
$FILLETRAD
 40
0.5
  9
$AUNITS
 70
     0
  9
$AUPREC
 70
     0
  9
$MENU
  1
.
  9
$ELEVATION
 40
0.0
  9
$PELEVATION
 40
0.0
  9
$THICKNESS
 40
0.0
  9
$LIMCHECK
 70
     0
  9
$CHAMFERA
 40
0.5
  9
$CHAMFERB
 40
0.5
  9
$CHAMFERC
 40
1.0
  9
$CHAMFERD
 40
0.0
  9
$SKPOLY
 70
     0
  9
$TDCREATE
 40
2456071.909899641
  9
$TDUCREATE
 40
2456071.868232974
  9
$TDUPDATE
 40
2456071.951566319
  9
$TDUUPDATE
 40
2456071.868232986
  9
$TDINDWG
 40
0.0000000116
  9
$TDUSRTIMER
 40
0.0000000116
  9
$USRTIMER
 70
     1
  9
$ANGBASE
 50
0.0
  9
$ANGDIR
 70
     0
  9
$PDMODE
 70
     0
  9
$PDSIZE
 40
0.0
  9
$PLINEWID
 40
0.0
  9
$SPLFRAME
 70
     0
  9
$SPLINETYPE
 70
     6
  9
$SPLINESEGS
 70
     8
  9
$HANDSEED
  5
1EE
  9
$SURFTAB1
 70
     6
  9
$SURFTAB2
 70
     6
  9
$SURFTYPE
 70
     6
  9
$SURFU
 70
     6
  9
$SURFV
 70
     6
  9
$UCSBASE
  2

  9
$UCSNAME
  2

  9
$UCSORG
 10
0.0
 20
0.0
 30
0.0
  9
$UCSXDIR
 10
1.0
 20
0.0
 30
0.0
  9
$UCSYDIR
 10
0.0
 20
1.0
 30
0.0
  9
$UCSORTHOREF
  2

  9
$UCSORTHOVIEW
 70
     0
  9
$UCSORGTOP
 10
0.0
 20
0.0
 30
0.0
  9
$UCSORGBOTTOM
 10
0.0
 20
0.0
 30
0.0
  9
$UCSORGLEFT
 10
0.0
 20
0.0
 30
0.0
  9
$UCSORGRIGHT
 10
0.0
 20
0.0
 30
0.0
  9
$UCSORGFRONT
 10
0.0
 20
0.0
 30
0.0
  9
$UCSORGBACK
 10
0.0
 20
0.0
 30
0.0
  9
$PUCSBASE
  2

  9
$PUCSNAME
  2

  9
$PUCSORG
 10
0.0
 20
0.0
 30
0.0
  9
$PUCSXDIR
 10
1.0
 20
0.0
 30
0.0
  9
$PUCSYDIR
 10
0.0
 20
1.0
 30
0.0
  9
$PUCSORTHOREF
  2

  9
$PUCSORTHOVIEW
 70
     0
  9
$PUCSORGTOP
 10
0.0
 20
0.0
 30
0.0
  9
$PUCSORGBOTTOM
 10
0.0
 20
0.0
 30
0.0
  9
$PUCSORGLEFT
 10
0.0
 20
0.0
 30
0.0
  9
$PUCSORGRIGHT
 10
0.0
 20
0.0
 30
0.0
  9
$PUCSORGFRONT
 10
0.0
 20
0.0
 30
0.0
  9
$PUCSORGBACK
 10
0.0
 20
0.0
 30
0.0
  9
$USERI1
 70
     0
  9
$USERI2
 70
     0
  9
$USERI3
 70
     0
  9
$USERI4
 70
     0
  9
$USERI5
 70
     0
  9
$USERR1
 40
0.0
  9
$USERR2
 40
0.0
  9
$USERR3
 40
0.0
  9
$USERR4
 40
0.0
  9
$USERR5
 40
0.0
  9
$WORLDVIEW
 70
     1
  9
$SHADEDGE
 70
     3
  9
$SHADEDIF
 70
    70
  9
$TILEMODE
 70
     1
  9
$MAXACTVP
 70
    64
  9
$PINSBASE
 10
0.0
 20
0.0
 30
0.0
  9
$PLIMCHECK
 70
     0
  9
$PEXTMIN
 10
1.000000000000000E+20
 20
1.000000000000000E+20
 30
1.000000000000000E+20
  9
$PEXTMAX
 10
-1.000000000000000E+20
 20
-1.000000000000000E+20
 30
-1.000000000000000E+20
  9
$PLIMMIN
 10
0.0
 20
0.0
  9
$PLIMMAX
 10
12.0
 20
9.0
  9
$UNITMODE
 70
     0
  9
$VISRETAIN
 70
     1
  9
$PLINEGEN
 70
     0
  9
$PSLTSCALE
 70
     1
  9
$TREEDEPTH
 70
  3020
  9
$CMLSTYLE
  2
Standard
  9
$CMLJUST
 70
     0
  9
$CMLSCALE
 40
1.0
  9
$PROXYGRAPHICS
 70
     1
  9
$MEASUREMENT
 70
     0
  9
$CELWEIGHT
370
    -1
  9
$ENDCAPS
280
     0
  9
$JOINSTYLE
280
     0
  9
$LWDISPLAY
290
     0
  9
$INSUNITS
 70
     1
  9
$HYPERLINKBASE
  1

  9
$STYLESHEET
  1

  9
$XEDIT
290
     1
  9
$CEPSNTYPE
380
     0
  9
$PSTYLEMODE
290
     0
  9
$FINGERPRINTGUID
  2
{FAEB1C30-E019-11D5-929B-00C0DF256EC4}
  9
$VERSIONGUID
  2
{FAEB1C32-E019-11D5-929B-00C0DF256EC4}
  9
$EXTNAMES
290
     1
  9
$PSVPSCALE
 40
0.0
  9
$OLESTARTUP
290
     0
  0
ENDSEC
  0
SECTION
  2
CLASSES
  0
CLASS
  1
ACDBDICTIONARYWDFLT
  2
AcDbDictionaryWithDefault
  3
ObjectDBX Classes
 90
        0
280
     0
281
     0
  0
CLASS
  1
ACDBPLACEHOLDER
  2
AcDbPlaceHolder
  3
ObjectDBX Classes
 90
        0
280
     0
281
     0
  0
CLASS
  1
LAYOUT
  2
AcDbLayout
  3
ObjectDBX Classes
 90
        0
280
     0
281
     0
  0
ENDSEC
  0
SECTION
  2
TABLES
  0
TABLE
  2
VPORT
  5
189
330
0
100
AcDbSymbolTable
 70
     2
  0
VPORT
  5
1AA
330
189
100
AcDbSymbolTableRecord
100
AcDbViewportTableRecord
  2
*Active
 70
     0
 10
0.0
 20
0.0
 11
1.0
 21
1.0
 12
23.25
 22
9.369000000000002
 13
0.0
 23
0.0
 14
0.5
 24
0.5
 15
0.5
 25
0.5
 16
0.0
 26
0.0
 36
1.0
 17
0.0
 27
0.0
 37
0.0
 40
27.78591967871486
 41
0.6390559305206427
 42
50.0
 43
0.0
 44
0.0
 50
0.0
 51
0.0000000000007958
 71
     0
 72
   100
 73
     1
 74
     3
 75
     0
 76
     0
 77
     0
 78
     0
281
     0
 65
     1
110
0.0
120
0.0
130
0.0
111
1.0
121
0.0
131
0.0
112
0.0
122
1.0
132
0.0
 79
     0
146
0.0
  0
ENDTAB
  0
TABLE
  2
LTYPE
  5
186
330
0
100
AcDbSymbolTable
 70
    25
  0
LTYPE
  5
195
330
186
100
AcDbSymbolTableRecord
100
AcDbLinetypeTableRecord
  2
ByBlock
 70
     0
  3

 72
    65
 73
     0
 40
0.0
  0
LTYPE
  5
196
330
186
100
AcDbSymbolTableRecord
100
AcDbLinetypeTableRecord
  2
ByLayer
 70
     0
  3

 72
    65
 73
     0
 40
0.0
  0
LTYPE
  5
197
330
186
100
AcDbSymbolTableRecord
100
AcDbLinetypeTableRecord
  2
Continuous
 70
     0
  3
Solid line
 72
    65
 73
     0
 40
0.0
  0
LTYPE
  5
1B2
330
186
100
AcDbSymbolTableRecord
100
AcDbLinetypeTableRecord
  2
CENTER
 70
     0
  3
Center ____ _ ____ _ ____ _ ____ _ ____ _ ____
 72
    65
 73
     4
 40
2.0
 49
1.25
 74
     0
 49
-0.25
 74
     0
 49
0.25
 74
     0
 49
-0.25
 74
     0
  0
LTYPE
  5
1B3
330
186
100
AcDbSymbolTableRecord
100
AcDbLinetypeTableRecord
  2
DASHDOT
 70
     0
  3
Dashdot __ . __ . __ . __ . __ . __ . __ . __
 72
    65
 73
     4
 40
1.0
 49
0.5
 74
     0
 49
-0.25
 74
     0
 49
0.0
 74
     0
 49
-0.25
 74
     0
  0
LTYPE
  5
1B4
330
186
100
AcDbSymbolTableRecord
100
AcDbLinetypeTableRecord
  2
DASHED
 70
     0
  3
Dashed __ __ __ __ __ __ __ __ __ __ __ __ __ _
 72
    65
 73
     2
 40
0.75
 49
0.5
 74
     0
 49
-0.25
 74
     0
  0
LTYPE
  5
1B5
330
186
100
AcDbSymbolTableRecord
100
AcDbLinetypeTableRecord
  2
HIDDEN
 70
     0
  3
Hidden __ __ __ __ __ __ __ __ __ __ __ __ __ __
 72
    65
 73
     2
 40
0.375
 49
0.25
 74
     0
 49
-0.125
 74
     0
  0
LTYPE
  5
1B6
330
186
100
AcDbSymbolTableRecord
100
AcDbLinetypeTableRecord
  2
HIDDEN2
 70
     0
  3
Hidden2 _ _ _ _ _ _ _ _ _ _ _ _ _ _ _ _ _ 
 72
    65
 73
     2
 40
0.1875
 49
0.125
 74
     0
 49
-0.0625
 74
     0
  0
LTYPE
  5
1B7
330
186
100
AcDbSymbolTableRecord
100
AcDbLinetypeTableRecord
  2
BORDER
 70
     0
  3
Border __ __ . __ __ . __ __ . __ __ . __ __ .
 72
    65
 73
     6
 40
1.75
 49
0.5
 74
     0
 49
-0.25
 74
     0
 49
0.5
 74
     0
 49
-0.25
 74
     0
 49
0.0
 74
     0
 49
-0.25
 74
     0
  0
LTYPE
  5
1B8
330
186
100
AcDbSymbolTableRecord
100
AcDbLinetypeTableRecord
  2
BORDER2
 70
     0
  3
Border2 __.__.__.__.__.__.__.__.__.__.__.
 72
    65
 73
     6
 40
0.875
 49
0.25
 74
     0
 49
-0.125
 74
     0
 49
0.25
 74
     0
 49
-0.125
 74
     0
 49
0.0
 74
     0
 49
-0.125
 74
     0
  0
LTYPE
  5
1B9
330
186
100
AcDbSymbolTableRecord
100
AcDbLinetypeTableRecord
  2
BORDERX2
 70
     0
  3
Borderx2  ____  ____  .  ____  ____  .  ___
 72
    65
 73
     6
 40
3.5
 49
1.0
 74
     0
 49
-0.5
 74
     0
 49
1.0
 74
     0
 49
-0.5
 74
     0
 49
0.0
 74
     0
 49
-0.5
 74
     0
  0
LTYPE
  5
1BA
330
186
100
AcDbSymbolTableRecord
100
AcDbLinetypeTableRecord
  2
CENTER2
 70
     0
  3
Center2  ___ _ ___ _ ___ _ ___ _ ___ _ ___
 72
    65
 73
     4
 40
1.125
 49
0.75
 74
     0
 49
-0.125
 74
     0
 49
0.125
 74
     0
 49
-0.125
 74
     0
  0
LTYPE
  5
1BB
330
186
100
AcDbSymbolTableRecord
100
AcDbLinetypeTableRecord
  2
CENTERX2
 70
     0
  3
Centerx2  ________  __  ________  __  _____
 72
    65
 73
     4
 40
4.0
 49
2.5
 74
     0
 49
-0.5
 74
     0
 49
0.5
 74
     0
 49
-0.5
 74
     0
  0
LTYPE
  5
1BC
330
186
100
AcDbSymbolTableRecord
100
AcDbLinetypeTableRecord
  2
DASHDOT2
 70
     0
  3
Dashdot2  _._._._._._._._._._._._._._._.
 72
    65
 73
     4
 40
0.5
 49
0.25
 74
     0
 49
-0.125
 74
     0
 49
0.0
 74
     0
 49
-0.125
 74
     0
  0
LTYPE
  5
1BD
330
186
100
AcDbSymbolTableRecord
100
AcDbLinetypeTableRecord
  2
DASHDOTX2
 70
     0
  3
Dashdotx2 ____  .  ____  .  ____  .  ___
 72
    65
 73
     4
 40
2.0
 49
1.0
 74
     0
 49
-0.5
 74
     0
 49
0.0
 74
     0
 49
-0.5
 74
     0
  0
LTYPE
  5
1BE
330
186
100
AcDbSymbolTableRecord
100
AcDbLinetypeTableRecord
  2
DASHED2
 70
     0
  3
Dashed2 _ _ _ _ _ _ _ _ _ _ _ _ _ _ _ _ _ 
 72
    65
 73
     2
 40
0.375
 49
0.25
 74
     0
 49
-0.125
 74
     0
  0
LTYPE
  5
1BF
330
186
100
AcDbSymbolTableRecord
100
AcDbLinetypeTableRecord
  2
DASHEDX2
 70
     0
  3
Dashedx2 ____  ____  ____  ____  ____  ___
 72
    65
 73
     2
 40
1.5
 49
1.0
 74
     0
 49
-0.5
 74
     0
  0
LTYPE
  5
1C0
330
186
100
AcDbSymbolTableRecord
100
AcDbLinetypeTableRecord
  2
DIVIDE
 70
     0
  3
Divide ____ . . ____ . . ____ . . ____ . . ____
 72
    65
 73
     6
 40
1.25
 49
0.5
 74
     0
 49
-0.25
 74
     0
 49
0.0
 74
     0
 49
-0.25
 74
     0
 49
0.0
 74
     0
 49
-0.25
 74
     0
  0
LTYPE
  5
1C1
330
186
100
AcDbSymbolTableRecord
100
AcDbLinetypeTableRecord
  2
DIVIDE2
 70
     0
  3
Divide2 __..__..__..__..__..__..__..__.._
 72
    65
 73
     6
 40
0.625
 49
0.25
 74
     0
 49
-0.125
 74
     0
 49
0.0
 74
     0
 49
-0.125
 74
     0
 49
0.0
 74
     0
 49
-0.125
 74
     0
  0
LTYPE
  5
1C2
330
186
100
AcDbSymbolTableRecord
100
AcDbLinetypeTableRecord
  2
DIVIDEX2
 70
     0
  3
Dividex2 ________  .  .  ________  .  .  _
 72
    65
 73
     6
 40
2.5
 49
1.0
 74
     0
 49
-0.5
 74
     0
 49
0.0
 74
     0
 49
-0.5
 74
     0
 49
0.0
 74
     0
 49
-0.5
 74
     0
  0
LTYPE
  5
1C3
330
186
100
AcDbSymbolTableRecord
100
AcDbLinetypeTableRecord
  2
DOT
 70
     0
  3
Dot . . . . . . . . . . . . . . . . . . . . . . . .
 72
    65
 73
     2
 40
0.25
 49
0.0
 74
     0
 49
-0.25
 74
     0
  0
LTYPE
  5
1C4
330
186
100
AcDbSymbolTableRecord
100
AcDbLinetypeTableRecord
  2
DOT2
 70
     0
  3
Dot2 ........................................
 72
    65
 73
     2
 40
0.125
 49
0.0
 74
     0
 49
-0.125
 74
     0
  0
LTYPE
  5
1C5
330
186
100
AcDbSymbolTableRecord
100
AcDbLinetypeTableRecord
  2
DOTX2
 70
     0
  3
Dotx2 .  .  .  .  .  .  .  .  .  .  .  .  .  .
 72
    65
 73
     2
 40
0.5
 49
0.0
 74
     0
 49
-0.5
 74
     0
  0
LTYPE
  5
1C6
330
186
100
AcDbSymbolTableRecord
100
AcDbLinetypeTableRecord
  2
HIDDENX2
 70
     0
  3
Hiddenx2 ____ ____ ____ ____ ____ ____ ____ 
 72
    65
 73
     2
 40
0.75
 49
0.5
 74
     0
 49
-0.25
 74
     0
  0
LTYPE
  5
1C7
330
186
100
AcDbSymbolTableRecord
100
AcDbLinetypeTableRecord
  2
PHANTOM
 70
     0
  3
Phantom ______  __  __  ______  __  __  ______ 
 72
    65
 73
     6
 40
2.5
 49
1.25
 74
     0
 49
-0.25
 74
     0
 49
0.25
 74
     0
 49
-0.25
 74
     0
 49
0.25
 74
     0
 49
-0.25
 74
     0
  0
LTYPE
  5
1C8
330
186
100
AcDbSymbolTableRecord
100
AcDbLinetypeTableRecord
  2
PHANTOM2
 70
     0
  3
Phantom2 ___ _ _ ___ _ _ ___ _ _ ___ _ _
 72
    65
 73
     6
 40
1.25
 49
0.625
 74
     0
 49
-0.125
 74
     0
 49
0.125
 74
     0
 49
-0.125
 74
     0
 49
0.125
 74
     0
 49
-0.125
 74
     0
  0
LTYPE
  5
1C9
330
186
100
AcDbSymbolTableRecord
100
AcDbLinetypeTableRecord
  2
PHANTOMX2
 70
     0
  3
Phantomx2 ____________    ____    ____   _
 72
    65
 73
     6
 40
5.0
 49
2.5
 74
     0
 49
-0.5
 74
     0
 49
0.5
 74
     0
 49
-0.5
 74
     0
 49
0.5
 74
     0
 49
-0.5
 74
     0
  0
ENDTAB
  0
TABLE
  2
LAYER
  5
183
330
0
100
AcDbSymbolTable
 70
    12
  0
LAYER
  5
191
330
183
100
AcDbSymbolTableRecord
100
AcDbLayerTableRecord
  2
0
 70
     0
 62
     7
  6
Continuous
370
     0
390
190
  0
LAYER
  5
21
330
183
100
AcDbSymbolTableRecord
100
AcDbLayerTableRecord
  2
17
 70
     0
 62
    82
  6
Continuous
370
     0
390
190
  0
LAYER
  5
22
330
183
100
AcDbSymbolTableRecord
100
AcDbLayerTableRecord
  2
18
 70
     0
 62
    82
  6
Continuous
370
     0
390
190
  0
LAYER
  5
23
330
183
100
AcDbSymbolTableRecord
100
AcDbLayerTableRecord
  2
20
 70
     0
 62
     7
  6
Continuous
370
     0
390
190
  0
LAYER
  5
24
330
183
100
AcDbSymbolTableRecord
100
AcDbLayerTableRecord
  2
44
 70
     0
 62
   253
  6
Continuous
370
     0
390
190
  0
LAYER
  5
25
330
183
100
AcDbSymbolTableRecord
100
AcDbLayerTableRecord
  2
45
 70
     0
 62
   253
  6
Continuous
370
     0
390
190
  0
LAYER
  5
26
330
183
100
AcDbSymbolTableRecord
100
AcDbLayerTableRecord
  2
46
 70
     0
 62
   140
  6
Continuous
370
     0
390
190
  0
LAYER
  5
27
330
183
100
AcDbSymbolTableRecord
100
AcDbLayerTableRecord
  2
47
 70
     0
 62
   253
  6
Continuous
370
     0
390
190
  0
LAYER
  5
28
330
183
100
AcDbSymbolTableRecord
100
AcDbLayerTableRecord
  2
48
 70
     0
 62
   253
  6
Continuous
370
     0
390
190
  0
LAYER
  5
29
330
183
100
AcDbSymbolTableRecord
100
AcDbLayerTableRecord
  2
49
 70
     0
 62
   253
  6
Continuous
370
     0
390
190
  0
LAYER
  5
2A
330
183
100
AcDbSymbolTableRecord
100
AcDbLayerTableRecord
  2
50
 70
     0
 62
   253
  6
Continuous
370
     0
390
190
  0
LAYER
  5
2B
330
183
100
AcDbSymbolTableRecord
100
AcDbLayerTableRecord
  2
200
 70
     0
 62
   175
  6
Continuous
370
     0
390
190
  0
ENDTAB
  0
TABLE
  2
STYLE
  5
184
330
0
100
AcDbSymbolTable
 70
     1
  0
STYLE
  5
192
330
184
100
AcDbSymbolTableRecord
100
AcDbTextStyleTableRecord
  2
Standard
 70
     0
 40
0.0
 41
1.0
 50
0.0
 71
     0
 42
0.2
  3
txt.shx
  4

1001
ACAD
1000
txt.shx
1071
        0
  0
ENDTAB
  0
TABLE
  2
VIEW
  5
187
330
0
100
AcDbSymbolTable
 70
     0
  0
ENDTAB
  0
TABLE
  2
UCS
  5
188
330
0
100
AcDbSymbolTable
 70
     0
  0
ENDTAB
  0
TABLE
  2
APPID
  5
18A
330
0
100
AcDbSymbolTable
 70
     6
  0
APPID
  5
193
330
18A
100
AcDbSymbolTableRecord
100
AcDbRegAppTableRecord
  2
ACAD
 70
     0
  0
APPID
  5
1AB
330
18A
100
AcDbSymbolTableRecord
100
AcDbRegAppTableRecord
  2
VD_INVISIBLE_NOT_FOR_READ
 70
     0
  0
APPID
  5
1AC
330
18A
100
AcDbSymbolTableRecord
100
AcDbRegAppTableRecord
  2
VD_TEMPHATCH
 70
     0
  0
APPID
  5
1AD
330
18A
100
AcDbSymbolTableRecord
100
AcDbRegAppTableRecord
  2
VDEXTRAPARAM
 70
     0
  0
APPID
  5
1AE
330
18A
100
AcDbSymbolTableRecord
100
AcDbRegAppTableRecord
  2
PE_URL
 70
     0
  0
APPID
  5
1AF
330
18A
100
AcDbSymbolTableRecord
100
AcDbRegAppTableRecord
  2
VD_UNKNOWN
 70
     0
  0
ENDTAB
  0
TABLE
  2
DIMSTYLE
  5
18B
330
0
100
AcDbSymbolTable
 70
     1
100
AcDbDimStyleTable
  0
DIMSTYLE
105
1A8
330
18B
100
AcDbSymbolTableRecord
100
AcDbDimStyleTableRecord
  2
Standard
 70
     0
172
     1
174
     1
288
     1
340
192
342
17E
  0
ENDTAB
  0
TABLE
  2
BLOCK_RECORD
  5
182
330
0
100
AcDbSymbolTable
 70
    16
  0
BLOCK_RECORD
  5
1A0
330
182
100
AcDbSymbolTableRecord
100
AcDbBlockTableRecord
  2
*Model_Space
340
1A3
  0
BLOCK_RECORD
  5
19C
330
182
100
AcDbSymbolTableRecord
100
AcDbBlockTableRecord
  2
*Paper_Space
340
19F
  0
BLOCK_RECORD
  5
1A4
330
182
100
AcDbSymbolTableRecord
100
AcDbBlockTableRecord
  2
*Paper_Space0
340
1A7
  0
BLOCK_RECORD
  5
2D
330
182
100
AcDbSymbolTableRecord
100
AcDbBlockTableRecord
  2
RECT
340
0
  0
BLOCK_RECORD
  5
31
330
182
100
AcDbSymbolTableRecord
100
AcDbBlockTableRecord
  2
PIE
340
0
  0
BLOCK_RECORD
  5
39
330
182
100
AcDbSymbolTableRecord
100
AcDbBlockTableRecord
  2
OCTAGONP
340
0
102
{BLKREFS
331
146
331
147
331
149
331
14A
331
14C
331
14D
331
14F
331
150
331
152
331
153
331
155
331
156
331
158
331
159
331
15B
331
15C
102
}
  0
BLOCK_RECORD
  5
48
330
182
100
AcDbSymbolTableRecord
100
AcDbBlockTableRecord
  2
SQUAREP
340
0
  0
BLOCK_RECORD
  5
4C
330
182
100
AcDbSymbolTableRecord
100
AcDbBlockTableRecord
  2
ROUNDP
340
0
  0
BLOCK_RECORD
  5
54
330
182
100
AcDbSymbolTableRecord
100
AcDbBlockTableRecord
  2
ANNULUSP
340
0
  0
BLOCK_RECORD
  5
5C
330
182
100
AcDbSymbolTableRecord
100
AcDbBlockTableRecord
  2
THERMALP
340
0
  0
BLOCK_RECORD
  5
8F
330
182
100
AcDbSymbolTableRecord
100
AcDbBlockTableRecord
  2
OCTAGONV
340
0
  0
BLOCK_RECORD
  5
9E
330
182
100
AcDbSymbolTableRecord
100
AcDbBlockTableRecord
  2
SQUAREV
340
0
  0
BLOCK_RECORD
  5
A2
330
182
100
AcDbSymbolTableRecord
100
AcDbBlockTableRecord
  2
ROUNDV
340
0
  0
BLOCK_RECORD
  5
AA
330
182
100
AcDbSymbolTableRecord
100
AcDbBlockTableRecord
  2
ANNULUSV
340
0
  0
BLOCK_RECORD
  5
B2
330
182
100
AcDbSymbolTableRecord
100
AcDbBlockTableRecord
  2
THERMALV
340
0
  0
BLOCK_RECORD
  5
E5
330
182
100
AcDbSymbolTableRecord
100
AcDbBlockTableRecord
  2
LONGP100
340
0
102
{BLKREFS
331
13D
331
13E
331
140
331
141
331
143
331
144
331
15E
331
15F
331
161
331
162
331
164
331
165
331
167
331
168
331
16A
331
16B
331
16D
331
16E
331
170
331
171
331
173
331
174
102
}
  0
BLOCK_RECORD
  5
17E
330
182
100
AcDbSymbolTableRecord
100
AcDbBlockTableRecord
  2
VDDIM_DEFAULT
340
0
  0
BLOCK_RECORD
  5
180
330
182
100
AcDbSymbolTableRecord
100
AcDbBlockTableRecord
  2
VDDIM_NONE
340
0
  0
ENDTAB
  0
ENDSEC
  0
SECTION
  2
BLOCKS
  0
BLOCK
  5
1A1
330
1A0
100
AcDbEntity
  8
0
100
AcDbBlockBegin
  2
*Model_Space
 70
     0
 71
     0
 10
0.0
 20
0.0
 30
0.0
  3
*Model_Space
  1

  0
ENDBLK
  5
1A2
330
1A0
100
AcDbEntity
  8
0
100
AcDbBlockEnd
  0
BLOCK
  5
19D
330
19C
100
AcDbEntity
 67
     1
  8
0
100
AcDbBlockBegin
  2
*Paper_Space
 70
     0
 71
     0
 10
0.0
 20
0.0
 30
0.0
  3
*Paper_Space
  1

  0
ENDBLK
  5
19E
330
19C
100
AcDbEntity
 67
     1
  8
0
100
AcDbBlockEnd
  0
BLOCK
  5
1A5
330
1A4
100
AcDbEntity
  8
0
100
AcDbBlockBegin
  2
*Paper_Space0
 70
     0
 71
     0
 10
0.0
 20
0.0
 30
0.0
  3
*Paper_Space0
  1

  0
ENDBLK
  5
1A6
330
1A4
100
AcDbEntity
  8
0
100
AcDbBlockEnd
  0
BLOCK
  5
1CA
330
2D
100
AcDbEntity
  8
0
100
AcDbBlockBegin
  2
RECT
 70
     0
 71
     0
 10
0.0
 20
0.0
 30
0.0
  3
RECT
  1

  0
LWPOLYLINE
  5
2E
330
2D
100
AcDbEntity
  8
0
100
AcDbPolyline
 90
        4
 70
     1
 43
0.0
 10
-0.5
 20
-0.5
 10
0.5
 20
-0.5
 10
0.5
 20
0.5
 10
-0.5
 20
0.5
1001
VDEXTRAPARAM
1071
       65
1071
        0
1071
        0
1040
1.0
1000

1000

1040
0.0
1040
0.0
  0
HATCH
  5
1E8
330
2D
100
AcDbEntity
  8
0
100
AcDbHatch
 10
0.0
 20
0.0
 30
0.0
210
0.0
220
0.0
230
1.0
  2
SOLID
 70
     1
 71
     0
 91
        1
 92
        2
 72
     0
 73
     1
 93
        4
 10
-0.5
 20
-0.5
 10
0.5
 20
-0.5
 10
0.5
 20
0.5
 10
-0.5
 20
0.5
 97
        0
 75
     0
 76
     1
 98
        1
 10
0.0
 20
0.0
1001
VDEXTRAPARAM
1071
       65
1071
        0
1071
        0
1040
1.0
1000

1000

1040
0.0
1040
0.0
1001
VD_TEMPHATCH
1000
VD_TEMPHATCH
  0
ENDBLK
  5
1CB
330
2D
100
AcDbEntity
  8
0
100
AcDbBlockEnd
  0
BLOCK
  5
1CC
330
31
100
AcDbEntity
  8
0
100
AcDbBlockBegin
  2
PIE
 70
     0
 71
     0
 10
0.0
 20
0.0
 30
0.0
  3
PIE
  1

  0
LWPOLYLINE
  5
32
330
31
100
AcDbEntity
  8
0
100
AcDbPolyline
 90
        3
 70
     0
 43
0.5
 10
0.0
 20
-0.25
 42
1.0
 10
0.0
 20
0.25
 42
1.0
 10
0.0
 20
-0.25
1001
VDEXTRAPARAM
1071
        0
1071
        0
1071
        0
1040
1.0
1000

1000

1040
0.5
1040
0.0
  0
ENDBLK
  5
1CD
330
31
100
AcDbEntity
  8
0
100
AcDbBlockEnd
  0
BLOCK
  5
1CE
330
39
100
AcDbEntity
  8
0
100
AcDbBlockBegin
  2
OCTAGONP
 70
     0
 71
     0
 10
0.0
 20
0.0
 30
0.0
  3
OCTAGONP
  1

  0
LWPOLYLINE
  5
3A
330
39
100
AcDbEntity
  8
0
100
AcDbPolyline
 90
       10
 70
     0
 43
0.5
 10
-0.25
 20
-0.1036
 10
-0.25
 20
0.1036
 10
-0.1036
 20
0.25
 10
0.1036
 20
0.25
 10
0.25
 20
0.1036
 10
0.25
 20
-0.1036
 10
0.1036
 20
-0.25
 10
-0.1036
 20
-0.25
 10
-0.25
 20
-0.1036
 10
-0.25
 20
0.1036
1001
VDEXTRAPARAM
1071
        0
1071
        0
1071
        0
1040
1.0
1000

1000

1040
0.5
1040
0.0
  0
ENDBLK
  5
1CF
330
39
100
AcDbEntity
  8
0
100
AcDbBlockEnd
  0
BLOCK
  5
1D0
330
48
100
AcDbEntity
  8
0
100
AcDbBlockBegin
  2
SQUAREP
 70
     0
 71
     0
 10
0.0
 20
0.0
 30
0.0
  3
SQUAREP
  1

  0
LWPOLYLINE
  5
49
330
48
100
AcDbEntity
  8
0
100
AcDbPolyline
 90
        4
 70
     1
 43
0.0
 10
-0.5
 20
-0.5
 10
0.5
 20
-0.5
 10
0.5
 20
0.5
 10
-0.5
 20
0.5
1001
VDEXTRAPARAM
1071
       65
1071
        0
1071
        0
1040
1.0
1000

1000

1040
0.0
1040
0.0
  0
HATCH
  5
1E9
330
48
100
AcDbEntity
  8
0
100
AcDbHatch
 10
0.0
 20
0.0
 30
0.0
210
0.0
220
0.0
230
1.0
  2
SOLID
 70
     1
 71
     0
 91
        1
 92
        2
 72
     0
 73
     1
 93
        4
 10
-0.5
 20
-0.5
 10
0.5
 20
-0.5
 10
0.5
 20
0.5
 10
-0.5
 20
0.5
 97
        0
 75
     0
 76
     1
 98
        1
 10
0.0
 20
0.0
1001
VDEXTRAPARAM
1071
       65
1071
        0
1071
        0
1040
1.0
1000

1000

1040
0.0
1040
0.0
1001
VD_TEMPHATCH
1000
VD_TEMPHATCH
  0
ENDBLK
  5
1D1
330
48
100
AcDbEntity
  8
0
100
AcDbBlockEnd
  0
BLOCK
  5
1D2
330
4C
100
AcDbEntity
  8
0
100
AcDbBlockBegin
  2
ROUNDP
 70
     0
 71
     0
 10
0.0
 20
0.0
 30
0.0
  3
ROUNDP
  1

  0
LWPOLYLINE
  5
4D
330
4C
100
AcDbEntity
  8
0
100
AcDbPolyline
 90
        3
 70
     0
 43
0.5
 10
0.0
 20
-0.25
 42
1.0
 10
0.0
 20
0.25
 42
1.0
 10
0.0
 20
-0.25
1001
VDEXTRAPARAM
1071
        0
1071
        0
1071
        0
1040
1.0
1000

1000

1040
0.5
1040
0.0
  0
ENDBLK
  5
1D3
330
4C
100
AcDbEntity
  8
0
100
AcDbBlockEnd
  0
BLOCK
  5
1D4
330
54
100
AcDbEntity
  8
0
100
AcDbBlockBegin
  2
ANNULUSP
 70
     0
 71
     0
 10
0.0
 20
0.0
 30
0.0
  3
ANNULUSP
  1

  0
LWPOLYLINE
  5
55
330
54
100
AcDbEntity
  8
0
100
AcDbPolyline
 90
        3
 70
     0
 43
0.5
 10
0.0
 20
-0.25
 42
1.0
 10
0.0
 20
0.25
 42
1.0
 10
0.0
 20
-0.25
1001
VDEXTRAPARAM
1071
        0
1071
        0
1071
        0
1040
1.0
1000

1000

1040
0.5
1040
0.0
  0
ENDBLK
  5
1D5
330
54
100
AcDbEntity
  8
0
100
AcDbBlockEnd
  0
BLOCK
  5
1D6
330
5C
100
AcDbEntity
  8
0
100
AcDbBlockBegin
  2
THERMALP
 70
     0
 71
     0
 10
0.0
 20
0.0
 30
0.0
  3
THERMALP
  1

  0
LWPOLYLINE
  5
5D
330
5C
100
AcDbEntity
  8
0
100
AcDbPolyline
 90
        2
 70
     0
 43
0.1
 10
-0.2379
 20
0.45
 10
0.2379
 20
0.45
1001
VDEXTRAPARAM
1071
        0
1071
        0
1071
        0
1040
1.0
1000

1000

1040
0.1
1040
0.0
  0
LWPOLYLINE
  5
61
330
5C
100
AcDbEntity
  8
0
100
AcDbPolyline
 90
        2
 70
     0
 43
0.05
 10
0.2379
 20
0.425
 42
1.0
 10
0.2379
 20
0.475
1001
VDEXTRAPARAM
1071
        0
1071
        0
1071
        0
1040
1.0
1000

1000

1040
0.05
1040
0.0
  0
LWPOLYLINE
  5
65
330
5C
100
AcDbEntity
  8
0
100
AcDbPolyline
 90
        2
 70
     0
 43
0.05
 10
-0.2379
 20
0.475
 42
1.0
 10
-0.2379
 20
0.425
1001
VDEXTRAPARAM
1071
        0
1071
        0
1071
        0
1040
1.0
1000

1000

1040
0.05
1040
0.0
  0
LWPOLYLINE
  5
69
330
5C
100
AcDbEntity
  8
0
100
AcDbPolyline
 90
        2
 70
     0
 43
0.1
 10
0.45
 20
0.2379
 10
0.45
 20
-0.2379
1001
VDEXTRAPARAM
1071
        0
1071
        0
1071
        0
1040
1.0
1000

1000

1040
0.1
1040
0.0
  0
LWPOLYLINE
  5
6D
330
5C
100
AcDbEntity
  8
0
100
AcDbPolyline
 90
        2
 70
     0
 43
0.05
 10
0.425
 20
-0.2379
 42
1.0
 10
0.475
 20
-0.2379
1001
VDEXTRAPARAM
1071
        0
1071
        0
1071
        0
1040
1.0
1000

1000

1040
0.05
1040
0.0
  0
LWPOLYLINE
  5
71
330
5C
100
AcDbEntity
  8
0
100
AcDbPolyline
 90
        2
 70
     0
 43
0.05
 10
0.475
 20
0.2379
 42
1.0
 10
0.425
 20
0.2379
1001
VDEXTRAPARAM
1071
        0
1071
        0
1071
        0
1040
1.0
1000

1000

1040
0.05
1040
0.0
  0
LWPOLYLINE
  5
75
330
5C
100
AcDbEntity
  8
0
100
AcDbPolyline
 90
        2
 70
     0
 43
0.1
 10
0.2379
 20
-0.45
 10
-0.2379
 20
-0.45
1001
VDEXTRAPARAM
1071
        0
1071
        0
1071
        0
1040
1.0
1000

1000

1040
0.1
1040
0.0
  0
LWPOLYLINE
  5
79
330
5C
100
AcDbEntity
  8
0
100
AcDbPolyline
 90
        2
 70
     0
 43
0.05
 10
-0.2379
 20
-0.425
 42
1.0
 10
-0.2379
 20
-0.475
1001
VDEXTRAPARAM
1071
        0
1071
        0
1071
        0
1040
1.0
1000

1000

1040
0.05
1040
0.0
  0
LWPOLYLINE
  5
7D
330
5C
100
AcDbEntity
  8
0
100
AcDbPolyline
 90
        2
 70
     0
 43
0.05
 10
0.2379
 20
-0.475
 42
1.0
 10
0.2379
 20
-0.425
1001
VDEXTRAPARAM
1071
        0
1071
        0
1071
        0
1040
1.0
1000

1000

1040
0.05
1040
0.0
  0
LWPOLYLINE
  5
81
330
5C
100
AcDbEntity
  8
0
100
AcDbPolyline
 90
        2
 70
     0
 43
0.1
 10
-0.45
 20
-0.2379
 10
-0.45
 20
0.2379
1001
VDEXTRAPARAM
1071
        0
1071
        0
1071
        0
1040
1.0
1000

1000

1040
0.1
1040
0.0
  0
LWPOLYLINE
  5
85
330
5C
100
AcDbEntity
  8
0
100
AcDbPolyline
 90
        2
 70
     0
 43
0.05
 10
-0.425
 20
0.2379
 42
1.0
 10
-0.475
 20
0.2379
1001
VDEXTRAPARAM
1071
        0
1071
        0
1071
        0
1040
1.0
1000

1000

1040
0.05
1040
0.0
  0
LWPOLYLINE
  5
89
330
5C
100
AcDbEntity
  8
0
100
AcDbPolyline
 90
        2
 70
     0
 43
0.05
 10
-0.475
 20
-0.2379
 42
1.0
 10
-0.425
 20
-0.2379
1001
VDEXTRAPARAM
1071
        0
1071
        0
1071
        0
1040
1.0
1000

1000

1040
0.05
1040
0.0
  0
ENDBLK
  5
1D7
330
5C
100
AcDbEntity
  8
0
100
AcDbBlockEnd
  0
BLOCK
  5
1D8
330
8F
100
AcDbEntity
  8
0
100
AcDbBlockBegin
  2
OCTAGONV
 70
     0
 71
     0
 10
0.0
 20
0.0
 30
0.0
  3
OCTAGONV
  1

  0
LWPOLYLINE
  5
90
330
8F
100
AcDbEntity
  8
0
100
AcDbPolyline
 90
       10
 70
     0
 43
0.5
 10
-0.25
 20
-0.1036
 10
-0.25
 20
0.1036
 10
-0.1036
 20
0.25
 10
0.1036
 20
0.25
 10
0.25
 20
0.1036
 10
0.25
 20
-0.1036
 10
0.1036
 20
-0.25
 10
-0.1036
 20
-0.25
 10
-0.25
 20
-0.1036
 10
-0.25
 20
0.1036
1001
VDEXTRAPARAM
1071
        0
1071
        0
1071
        0
1040
1.0
1000

1000

1040
0.5
1040
0.0
  0
ENDBLK
  5
1D9
330
8F
100
AcDbEntity
  8
0
100
AcDbBlockEnd
  0
BLOCK
  5
1DA
330
9E
100
AcDbEntity
  8
0
100
AcDbBlockBegin
  2
SQUAREV
 70
     0
 71
     0
 10
0.0
 20
0.0
 30
0.0
  3
SQUAREV
  1

  0
LWPOLYLINE
  5
9F
330
9E
100
AcDbEntity
  8
0
100
AcDbPolyline
 90
        4
 70
     1
 43
0.0
 10
-0.5
 20
-0.5
 10
0.5
 20
-0.5
 10
0.5
 20
0.5
 10
-0.5
 20
0.5
1001
VDEXTRAPARAM
1071
       65
1071
        0
1071
        0
1040
1.0
1000

1000

1040
0.0
1040
0.0
  0
HATCH
  5
1EA
330
9E
100
AcDbEntity
  8
0
100
AcDbHatch
 10
0.0
 20
0.0
 30
0.0
210
0.0
220
0.0
230
1.0
  2
SOLID
 70
     1
 71
     0
 91
        1
 92
        2
 72
     0
 73
     1
 93
        4
 10
-0.5
 20
-0.5
 10
0.5
 20
-0.5
 10
0.5
 20
0.5
 10
-0.5
 20
0.5
 97
        0
 75
     0
 76
     1
 98
        1
 10
0.0
 20
0.0
1001
VDEXTRAPARAM
1071
       65
1071
        0
1071
        0
1040
1.0
1000

1000

1040
0.0
1040
0.0
1001
VD_TEMPHATCH
1000
VD_TEMPHATCH
  0
ENDBLK
  5
1DB
330
9E
100
AcDbEntity
  8
0
100
AcDbBlockEnd
  0
BLOCK
  5
1DC
330
A2
100
AcDbEntity
  8
0
100
AcDbBlockBegin
  2
ROUNDV
 70
     0
 71
     0
 10
0.0
 20
0.0
 30
0.0
  3
ROUNDV
  1

  0
LWPOLYLINE
  5
A3
330
A2
100
AcDbEntity
  8
0
100
AcDbPolyline
 90
        3
 70
     0
 43
0.5
 10
0.0
 20
-0.25
 42
1.0
 10
0.0
 20
0.25
 42
1.0
 10
0.0
 20
-0.25
1001
VDEXTRAPARAM
1071
        0
1071
        0
1071
        0
1040
1.0
1000

1000

1040
0.5
1040
0.0
  0
ENDBLK
  5
1DD
330
A2
100
AcDbEntity
  8
0
100
AcDbBlockEnd
  0
BLOCK
  5
1DE
330
AA
100
AcDbEntity
  8
0
100
AcDbBlockBegin
  2
ANNULUSV
 70
     0
 71
     0
 10
0.0
 20
0.0
 30
0.0
  3
ANNULUSV
  1

  0
LWPOLYLINE
  5
AB
330
AA
100
AcDbEntity
  8
0
100
AcDbPolyline
 90
        3
 70
     0
 43
0.5
 10
0.0
 20
-0.25
 42
1.0
 10
0.0
 20
0.25
 42
1.0
 10
0.0
 20
-0.25
1001
VDEXTRAPARAM
1071
        0
1071
        0
1071
        0
1040
1.0
1000

1000

1040
0.5
1040
0.0
  0
ENDBLK
  5
1DF
330
AA
100
AcDbEntity
  8
0
100
AcDbBlockEnd
  0
BLOCK
  5
1E0
330
B2
100
AcDbEntity
  8
0
100
AcDbBlockBegin
  2
THERMALV
 70
     0
 71
     0
 10
0.0
 20
0.0
 30
0.0
  3
THERMALV
  1

  0
LWPOLYLINE
  5
B3
330
B2
100
AcDbEntity
  8
0
100
AcDbPolyline
 90
        2
 70
     0
 43
0.1
 10
-0.2379
 20
0.45
 10
0.2379
 20
0.45
1001
VDEXTRAPARAM
1071
        0
1071
        0
1071
        0
1040
1.0
1000

1000

1040
0.1
1040
0.0
  0
LWPOLYLINE
  5
B7
330
B2
100
AcDbEntity
  8
0
100
AcDbPolyline
 90
        2
 70
     0
 43
0.05
 10
0.2379
 20
0.425
 42
1.0
 10
0.2379
 20
0.475
1001
VDEXTRAPARAM
1071
        0
1071
        0
1071
        0
1040
1.0
1000

1000

1040
0.05
1040
0.0
  0
LWPOLYLINE
  5
BB
330
B2
100
AcDbEntity
  8
0
100
AcDbPolyline
 90
        2
 70
     0
 43
0.05
 10
-0.2379
 20
0.475
 42
1.0
 10
-0.2379
 20
0.425
1001
VDEXTRAPARAM
1071
        0
1071
        0
1071
        0
1040
1.0
1000

1000

1040
0.05
1040
0.0
  0
LWPOLYLINE
  5
BF
330
B2
100
AcDbEntity
  8
0
100
AcDbPolyline
 90
        2
 70
     0
 43
0.1
 10
0.45
 20
0.2379
 10
0.45
 20
-0.2379
1001
VDEXTRAPARAM
1071
        0
1071
        0
1071
        0
1040
1.0
1000

1000

1040
0.1
1040
0.0
  0
LWPOLYLINE
  5
C3
330
B2
100
AcDbEntity
  8
0
100
AcDbPolyline
 90
        2
 70
     0
 43
0.05
 10
0.425
 20
-0.2379
 42
1.0
 10
0.475
 20
-0.2379
1001
VDEXTRAPARAM
1071
        0
1071
        0
1071
        0
1040
1.0
1000

1000

1040
0.05
1040
0.0
  0
LWPOLYLINE
  5
C7
330
B2
100
AcDbEntity
  8
0
100
AcDbPolyline
 90
        2
 70
     0
 43
0.05
 10
0.475
 20
0.2379
 42
1.0
 10
0.425
 20
0.2379
1001
VDEXTRAPARAM
1071
        0
1071
        0
1071
        0
1040
1.0
1000

1000

1040
0.05
1040
0.0
  0
LWPOLYLINE
  5
CB
330
B2
100
AcDbEntity
  8
0
100
AcDbPolyline
 90
        2
 70
     0
 43
0.1
 10
0.2379
 20
-0.45
 10
-0.2379
 20
-0.45
1001
VDEXTRAPARAM
1071
        0
1071
        0
1071
        0
1040
1.0
1000

1000

1040
0.1
1040
0.0
  0
LWPOLYLINE
  5
CF
330
B2
100
AcDbEntity
  8
0
100
AcDbPolyline
 90
        2
 70
     0
 43
0.05
 10
-0.2379
 20
-0.425
 42
1.0
 10
-0.2379
 20
-0.475
1001
VDEXTRAPARAM
1071
        0
1071
        0
1071
        0
1040
1.0
1000

1000

1040
0.05
1040
0.0
  0
LWPOLYLINE
  5
D3
330
B2
100
AcDbEntity
  8
0
100
AcDbPolyline
 90
        2
 70
     0
 43
0.05
 10
0.2379
 20
-0.475
 42
1.0
 10
0.2379
 20
-0.425
1001
VDEXTRAPARAM
1071
        0
1071
        0
1071
        0
1040
1.0
1000

1000

1040
0.05
1040
0.0
  0
LWPOLYLINE
  5
D7
330
B2
100
AcDbEntity
  8
0
100
AcDbPolyline
 90
        2
 70
     0
 43
0.1
 10
-0.45
 20
-0.2379
 10
-0.45
 20
0.2379
1001
VDEXTRAPARAM
1071
        0
1071
        0
1071
        0
1040
1.0
1000

1000

1040
0.1
1040
0.0
  0
LWPOLYLINE
  5
DB
330
B2
100
AcDbEntity
  8
0
100
AcDbPolyline
 90
        2
 70
     0
 43
0.05
 10
-0.425
 20
0.2379
 42
1.0
 10
-0.475
 20
0.2379
1001
VDEXTRAPARAM
1071
        0
1071
        0
1071
        0
1040
1.0
1000

1000

1040
0.05
1040
0.0
  0
LWPOLYLINE
  5
DF
330
B2
100
AcDbEntity
  8
0
100
AcDbPolyline
 90
        2
 70
     0
 43
0.05
 10
-0.475
 20
-0.2379
 42
1.0
 10
-0.425
 20
-0.2379
1001
VDEXTRAPARAM
1071
        0
1071
        0
1071
        0
1040
1.0
1000

1000

1040
0.05
1040
0.0
  0
ENDBLK
  5
1E1
330
B2
100
AcDbEntity
  8
0
100
AcDbBlockEnd
  0
BLOCK
  5
1E2
330
E5
100
AcDbEntity
  8
0
100
AcDbBlockBegin
  2
LONGP100
 70
     0
 71
     0
 10
0.0
 20
0.0
 30
0.0
  3
LONGP100
  1

  0
LWPOLYLINE
  5
E6
330
E5
100
AcDbEntity
  8
0
100
AcDbPolyline
 90
        2
 70
     0
 43
1.0
 10
-0.5
 20
0.0
 10
0.5
 20
0.0
1001
VDEXTRAPARAM
1071
        0
1071
        0
1071
        0
1040
1.0
1000

1000

1040
1.0
1040
0.0
  0
LWPOLYLINE
  5
EA
330
E5
100
AcDbEntity
  8
0
100
AcDbPolyline
 90
        2
 70
     0
 43
0.5
 10
0.5
 20
-0.25
 42
1.0
 10
0.5
 20
0.25
1001
VDEXTRAPARAM
1071
        0
1071
        0
1071
        0
1040
1.0
1000

1000

1040
0.5
1040
0.0
  0
LWPOLYLINE
  5
EE
330
E5
100
AcDbEntity
  8
0
100
AcDbPolyline
 90
        2
 70
     0
 43
0.5
 10
-0.5
 20
0.25
 42
1.0
 10
-0.5
 20
-0.25
1001
VDEXTRAPARAM
1071
        0
1071
        0
1071
        0
1040
1.0
1000

1000

1040
0.5
1040
0.0
  0
ENDBLK
  5
1E3
330
E5
100
AcDbEntity
  8
0
100
AcDbBlockEnd
  0
BLOCK
  5
1E4
330
17E
100
AcDbEntity
  8
0
100
AcDbBlockBegin
  2
VDDIM_DEFAULT
 70
     0
 71
     0
 10
0.0
 20
0.0
 30
0.0
  3
VDDIM_DEFAULT
  1

  0
LWPOLYLINE
  5
17F
330
17E
100
AcDbEntity
  8
0
  6
Continuous
 62
     0
100
AcDbPolyline
 90
        4
 70
     0
 43
0.0
 10
0.0
 20
0.0
 10
-1.0
 20
-0.1665
 10
-1.0
 20
0.1665
 10
0.0
 20
0.0
1001
VDEXTRAPARAM
1071
        1
1071
        0
1071
        0
1040
1.0
1000

1000

1040
0.0
1040
0.0
  0
HATCH
  5
1EB
330
17E
100
AcDbEntity
  8
0
  6
Continuous
 62
     0
100
AcDbHatch
 10
0.0
 20
0.0
 30
0.0
210
0.0
220
0.0
230
1.0
  2
SOLID
 70
     1
 71
     0
 91
        1
 92
        2
 72
     0
 73
     1
 93
        3
 10
0.0
 20
0.0
 10
-1.0
 20
-0.1665
 10
-1.0
 20
0.1665
 97
        0
 75
     0
 76
     1
 98
        1
 10
0.0
 20
0.0
1001
VDEXTRAPARAM
1071
        1
1071
        0
1071
        0
1040
1.0
1000

1000

1040
0.0
1040
0.0
1001
VD_TEMPHATCH
1000
VD_TEMPHATCH
  0
ENDBLK
  5
1E5
330
17E
100
AcDbEntity
  8
0
100
AcDbBlockEnd
  0
BLOCK
  5
1E6
330
180
100
AcDbEntity
  8
0
100
AcDbBlockBegin
  2
VDDIM_NONE
 70
     0
 71
     0
 10
0.0
 20
0.0
 30
0.0
  3
VDDIM_NONE
  1

  0
ENDBLK
  5
1E7
330
180
100
AcDbEntity
  8
0
100
AcDbBlockEnd
  0
ENDSEC
  0
SECTION
  2
ENTITIES
  0
LWPOLYLINE
  5
F3
330
1A0
100
AcDbEntity
  8
20
100
AcDbPolyline
 90
        2
 70
     0
 43
0.4064
 10
0.0
 20
-0.762
 10
46.5
 20
-0.762
1001
VDEXTRAPARAM
1071
        0
1071
        0
1071
        0
1040
1.0
1000

1000

1040
0.4064
1040
0.0
  0
LWPOLYLINE
  5
F7
330
1A0
100
AcDbEntity
  8
20
100
AcDbPolyline
 90
        2
 70
     0
 43
0.2032
 10
46.5
 20
-0.8636
 42
1.0
 10
46.5
 20
-0.6604
1001
VDEXTRAPARAM
1071
        0
1071
        0
1071
        0
1040
1.0
1000

1000

1040
0.2032
1040
0.0
  0
LWPOLYLINE
  5
FB
330
1A0
100
AcDbEntity
  8
20
100
AcDbPolyline
 90
        2
 70
     0
 43
0.2032
 10
0.0
 20
-0.6604
 42
1.0
 10
0.0
 20
-0.8636
1001
VDEXTRAPARAM
1071
        0
1071
        0
1071
        0
1040
1.0
1000

1000

1040
0.2032
1040
0.0
  0
LWPOLYLINE
  5
FF
330
1A0
100
AcDbEntity
  8
20
100
AcDbPolyline
 90
        2
 70
     0
 43
0.4064
 10
0.0
 20
-0.762
 10
0.0
 20
19.5
1001
VDEXTRAPARAM
1071
        0
1071
        0
1071
        0
1040
1.0
1000

1000

1040
0.4064
1040
0.0
  0
LWPOLYLINE
  5
103
330
1A0
100
AcDbEntity
  8
20
100
AcDbPolyline
 90
        2
 70
     0
 43
0.2032
 10
0.1016
 20
19.5
 42
1.0
 10
-0.1016
 20
19.5
1001
VDEXTRAPARAM
1071
        0
1071
        0
1071
        0
1040
1.0
1000

1000

1040
0.2032
1040
0.0
  0
LWPOLYLINE
  5
107
330
1A0
100
AcDbEntity
  8
20
100
AcDbPolyline
 90
        2
 70
     0
 43
0.2032
 10
-0.1016
 20
-0.762
 42
1.0
 10
0.1016
 20
-0.762
1001
VDEXTRAPARAM
1071
        0
1071
        0
1071
        0
1040
1.0
1000

1000

1040
0.2032
1040
0.0
  0
LWPOLYLINE
  5
10B
330
1A0
100
AcDbEntity
  8
20
100
AcDbPolyline
 90
        2
 70
     0
 43
0.4064
 10
0.0
 20
19.5
 10
33.5
 20
19.5
1001
VDEXTRAPARAM
1071
        0
1071
        0
1071
        0
1040
1.0
1000

1000

1040
0.4064
1040
0.0
  0
LWPOLYLINE
  5
10F
330
1A0
100
AcDbEntity
  8
20
100
AcDbPolyline
 90
        2
 70
     0
 43
0.2032
 10
33.5
 20
19.3984
 42
1.0
 10
33.5
 20
19.6016
1001
VDEXTRAPARAM
1071
        0
1071
        0
1071
        0
1040
1.0
1000

1000

1040
0.2032
1040
0.0
  0
LWPOLYLINE
  5
113
330
1A0
100
AcDbEntity
  8
20
100
AcDbPolyline
 90
        2
 70
     0
 43
0.2032
 10
0.0
 20
19.6016
 42
1.0
 10
0.0
 20
19.3984
1001
VDEXTRAPARAM
1071
        0
1071
        0
1071
        0
1040
1.0
1000

1000

1040
0.2032
1040
0.0
  0
LWPOLYLINE
  5
117
330
1A0
100
AcDbEntity
  8
20
100
AcDbPolyline
 90
        2
 70
     0
 43
0.4064
 10
46.5
 20
-0.762
 10
46.5
 20
12.5
1001
VDEXTRAPARAM
1071
        0
1071
        0
1071
        0
1040
1.0
1000

1000

1040
0.4064
1040
0.0
  0
LWPOLYLINE
  5
11B
330
1A0
100
AcDbEntity
  8
20
100
AcDbPolyline
 90
        2
 70
     0
 43
0.2032
 10
46.6016
 20
12.5
 42
1.0
 10
46.3984
 20
12.5
1001
VDEXTRAPARAM
1071
        0
1071
        0
1071
        0
1040
1.0
1000

1000

1040
0.2032
1040
0.0
  0
LWPOLYLINE
  5
11F
330
1A0
100
AcDbEntity
  8
20
100
AcDbPolyline
 90
        2
 70
     0
 43
0.2032
 10
46.3984
 20
-0.762
 42
1.0
 10
46.6016
 20
-0.762
1001
VDEXTRAPARAM
1071
        0
1071
        0
1071
        0
1040
1.0
1000

1000

1040
0.2032
1040
0.0
  0
LWPOLYLINE
  5
123
330
1A0
100
AcDbEntity
  8
20
100
AcDbPolyline
 90
        2
 70
     0
 43
0.4064
 10
33.5
 20
12.5
 10
33.5
 20
19.5
1001
VDEXTRAPARAM
1071
        0
1071
        0
1071
        0
1040
1.0
1000

1000

1040
0.4064
1040
0.0
  0
LWPOLYLINE
  5
127
330
1A0
100
AcDbEntity
  8
20
100
AcDbPolyline
 90
        2
 70
     0
 43
0.2032
 10
33.6016
 20
19.5
 42
1.0
 10
33.3984
 20
19.5
1001
VDEXTRAPARAM
1071
        0
1071
        0
1071
        0
1040
1.0
1000

1000

1040
0.2032
1040
0.0
  0
LWPOLYLINE
  5
12B
330
1A0
100
AcDbEntity
  8
20
100
AcDbPolyline
 90
        2
 70
     0
 43
0.2032
 10
33.3984
 20
12.5
 42
1.0
 10
33.6016
 20
12.5
1001
VDEXTRAPARAM
1071
        0
1071
        0
1071
        0
1040
1.0
1000

1000

1040
0.2032
1040
0.0
  0
LWPOLYLINE
  5
12F
330
1A0
100
AcDbEntity
  8
20
100
AcDbPolyline
 90
        2
 70
     0
 43
0.4064
 10
33.5
 20
12.5
 10
46.5
 20
12.5
1001
VDEXTRAPARAM
1071
        0
1071
        0
1071
        0
1040
1.0
1000

1000

1040
0.4064
1040
0.0
  0
LWPOLYLINE
  5
133
330
1A0
100
AcDbEntity
  8
20
100
AcDbPolyline
 90
        2
 70
     0
 43
0.2032
 10
46.5
 20
12.3984
 42
1.0
 10
46.5
 20
12.6016
1001
VDEXTRAPARAM
1071
        0
1071
        0
1071
        0
1040
1.0
1000

1000

1040
0.2032
1040
0.0
  0
LWPOLYLINE
  5
137
330
1A0
100
AcDbEntity
  8
20
100
AcDbPolyline
 90
        2
 70
     0
 43
0.2032
 10
33.5
 20
12.6016
 42
1.0
 10
33.5
 20
12.3984
1001
VDEXTRAPARAM
1071
        0
1071
        0
1071
        0
1040
1.0
1000

1000

1040
0.2032
1040
0.0
  0
CIRCLE
  5
13B
330
1A0
100
AcDbEntity
  8
20
100
AcDbCircle
 10
2.0
 20
3.0
 30
0.0
 40
1.0
  0
CIRCLE
  5
13C
330
1A0
100
AcDbEntity
  8
20
100
AcDbCircle
 10
39.0
 20
3.0
 30
0.0
 40
1.0
  0
INSERT
  5
13D
330
1A0
100
AcDbEntity
  8
17
100
AcDbBlockReference
  2
LONGP100
 10
41.53
 20
7.678
 30
0.0
 41
1.524
 42
1.524
 50
270.0
  0
INSERT
  5
13E
330
1A0
100
AcDbEntity
  8
17
100
AcDbBlockReference
  2
LONGP100
 10
41.53
 20
7.678
 30
0.0
 41
1.524
 42
1.524
 50
270.0
  0
CIRCLE
  5
13F
330
1A0
100
AcDbEntity
  8
44
100
AcDbCircle
 10
41.53
 20
7.678
 30
0.0
 40
0.508
  0
INSERT
  5
140
330
1A0
100
AcDbEntity
  8
17
100
AcDbBlockReference
  2
LONGP100
 10
38.99
 20
7.678
 30
0.0
 41
1.524
 42
1.524
 50
270.0
  0
INSERT
  5
141
330
1A0
100
AcDbEntity
  8
17
100
AcDbBlockReference
  2
LONGP100
 10
38.99
 20
7.678
 30
0.0
 41
1.524
 42
1.524
 50
270.0
  0
CIRCLE
  5
142
330
1A0
100
AcDbEntity
  8
44
100
AcDbCircle
 10
38.99
 20
7.678
 30
0.0
 40
0.508
  0
INSERT
  5
143
330
1A0
100
AcDbEntity
  8
17
100
AcDbBlockReference
  2
LONGP100
 10
36.45
 20
7.678
 30
0.0
 41
1.524
 42
1.524
 50
270.0
  0
INSERT
  5
144
330
1A0
100
AcDbEntity
  8
17
100
AcDbBlockReference
  2
LONGP100
 10
36.45
 20
7.678
 30
0.0
 41
1.524
 42
1.524
 50
270.0
  0
CIRCLE
  5
145
330
1A0
100
AcDbEntity
  8
44
100
AcDbCircle
 10
36.45
 20
7.678
 30
0.0
 40
0.508
  0
INSERT
  5
146
330
1A0
100
AcDbEntity
  8
17
100
AcDbBlockReference
  2
OCTAGONP
 10
45.5
 20
1.5
 30
0.0
 41
1.524
 42
1.524
  0
INSERT
  5
147
330
1A0
100
AcDbEntity
  8
17
100
AcDbBlockReference
  2
OCTAGONP
 10
45.5
 20
1.5
 30
0.0
 41
1.524
 42
1.524
  0
CIRCLE
  5
148
330
1A0
100
AcDbEntity
  8
44
100
AcDbCircle
 10
45.5
 20
1.5
 30
0.0
 40
0.508
  0
INSERT
  5
149
330
1A0
100
AcDbEntity
  8
17
100
AcDbBlockReference
  2
OCTAGONP
 10
45.5
 20
11.0
 30
0.0
 41
1.524
 42
1.524
  0
INSERT
  5
14A
330
1A0
100
AcDbEntity
  8
17
100
AcDbBlockReference
  2
OCTAGONP
 10
45.5
 20
11.0
 30
0.0
 41
1.524
 42
1.524
  0
CIRCLE
  5
14B
330
1A0
100
AcDbEntity
  8
44
100
AcDbCircle
 10
45.5
 20
11.0
 30
0.0
 40
0.508
  0
INSERT
  5
14C
330
1A0
100
AcDbEntity
  8
17
100
AcDbBlockReference
  2
OCTAGONP
 10
7.008
 20
15.23
 30
0.0
 41
1.3208
 42
1.3208
 50
90.0
  0
INSERT
  5
14D
330
1A0
100
AcDbEntity
  8
17
100
AcDbBlockReference
  2
OCTAGONP
 10
7.008
 20
15.23
 30
0.0
 41
1.3208
 42
1.3208
 50
90.0
  0
CIRCLE
  5
14E
330
1A0
100
AcDbEntity
  8
44
100
AcDbCircle
 10
7.008
 20
15.23
 30
0.0
 40
0.4064
  0
INSERT
  5
14F
330
1A0
100
AcDbEntity
  8
17
100
AcDbBlockReference
  2
OCTAGONP
 10
7.008
 20
17.77
 30
0.0
 41
1.3208
 42
1.3208
 50
90.0
  0
INSERT
  5
150
330
1A0
100
AcDbEntity
  8
17
100
AcDbBlockReference
  2
OCTAGONP
 10
7.008
 20
17.77
 30
0.0
 41
1.3208
 42
1.3208
 50
90.0
  0
CIRCLE
  5
151
330
1A0
100
AcDbEntity
  8
44
100
AcDbCircle
 10
7.008
 20
17.77
 30
0.0
 40
0.4064
  0
INSERT
  5
152
330
1A0
100
AcDbEntity
  8
17
100
AcDbBlockReference
  2
OCTAGONP
 10
17.722
 20
16.5
 30
0.0
 41
1.3208
 42
1.3208
  0
INSERT
  5
153
330
1A0
100
AcDbEntity
  8
17
100
AcDbBlockReference
  2
OCTAGONP
 10
17.722
 20
16.5
 30
0.0
 41
1.3208
 42
1.3208
  0
CIRCLE
  5
154
330
1A0
100
AcDbEntity
  8
44
100
AcDbCircle
 10
17.722
 20
16.5
 30
0.0
 40
0.4064
  0
INSERT
  5
155
330
1A0
100
AcDbEntity
  8
17
100
AcDbBlockReference
  2
OCTAGONP
 10
20.262
 20
16.5
 30
0.0
 41
1.3208
 42
1.3208
  0
INSERT
  5
156
330
1A0
100
AcDbEntity
  8
17
100
AcDbBlockReference
  2
OCTAGONP
 10
20.262
 20
16.5
 30
0.0
 41
1.3208
 42
1.3208
  0
CIRCLE
  5
157
330
1A0
100
AcDbEntity
  8
44
100
AcDbCircle
 10
20.262
 20
16.5
 30
0.0
 40
0.4064
  0
INSERT
  5
158
330
1A0
100
AcDbEntity
  8
17
100
AcDbBlockReference
  2
OCTAGONP
 10
31.0
 20
17.77
 30
0.0
 41
1.3208
 42
1.3208
 50
270.0
  0
INSERT
  5
159
330
1A0
100
AcDbEntity
  8
17
100
AcDbBlockReference
  2
OCTAGONP
 10
31.0
 20
17.77
 30
0.0
 41
1.3208
 42
1.3208
 50
270.0
  0
CIRCLE
  5
15A
330
1A0
100
AcDbEntity
  8
44
100
AcDbCircle
 10
31.0
 20
17.77
 30
0.0
 40
0.4064
  0
INSERT
  5
15B
330
1A0
100
AcDbEntity
  8
17
100
AcDbBlockReference
  2
OCTAGONP
 10
31.0
 20
15.23
 30
0.0
 41
1.3208
 42
1.3208
 50
270.0
  0
INSERT
  5
15C
330
1A0
100
AcDbEntity
  8
17
100
AcDbBlockReference
  2
OCTAGONP
 10
31.0
 20
15.23
 30
0.0
 41
1.3208
 42
1.3208
 50
270.0
  0
CIRCLE
  5
15D
330
1A0
100
AcDbEntity
  8
44
100
AcDbCircle
 10
31.0
 20
15.23
 30
0.0
 40
0.4064
  0
INSERT
  5
15E
330
1A0
100
AcDbEntity
  8
17
100
AcDbBlockReference
  2
LONGP100
 10
25.908
 20
10.16
 30
0.0
 41
1.3208
 42
1.3208
  0
INSERT
  5
15F
330
1A0
100
AcDbEntity
  8
17
100
AcDbBlockReference
  2
LONGP100
 10
25.908
 20
10.16
 30
0.0
 41
1.3208
 42
1.3208
  0
CIRCLE
  5
160
330
1A0
100
AcDbEntity
  8
44
100
AcDbCircle
 10
25.908
 20
10.16
 30
0.0
 40
0.4064
  0
INSERT
  5
161
330
1A0
100
AcDbEntity
  8
17
100
AcDbBlockReference
  2
LONGP100
 10
25.908
 20
7.62
 30
0.0
 41
1.3208
 42
1.3208
  0
INSERT
  5
162
330
1A0
100
AcDbEntity
  8
17
100
AcDbBlockReference
  2
LONGP100
 10
25.908
 20
7.62
 30
0.0
 41
1.3208
 42
1.3208
  0
CIRCLE
  5
163
330
1A0
100
AcDbEntity
  8
44
100
AcDbCircle
 10
25.908
 20
7.62
 30
0.0
 40
0.4064
  0
INSERT
  5
164
330
1A0
100
AcDbEntity
  8
17
100
AcDbBlockReference
  2
LONGP100
 10
25.908
 20
5.08
 30
0.0
 41
1.3208
 42
1.3208
  0
INSERT
  5
165
330
1A0
100
AcDbEntity
  8
17
100
AcDbBlockReference
  2
LONGP100
 10
25.908
 20
5.08
 30
0.0
 41
1.3208
 42
1.3208
  0
CIRCLE
  5
166
330
1A0
100
AcDbEntity
  8
44
100
AcDbCircle
 10
25.908
 20
5.08
 30
0.0
 40
0.4064
  0
INSERT
  5
167
330
1A0
100
AcDbEntity
  8
17
100
AcDbBlockReference
  2
LONGP100
 10
25.908
 20
2.54
 30
0.0
 41
1.3208
 42
1.3208
  0
INSERT
  5
168
330
1A0
100
AcDbEntity
  8
17
100
AcDbBlockReference
  2
LONGP100
 10
25.908
 20
2.54
 30
0.0
 41
1.3208
 42
1.3208
  0
CIRCLE
  5
169
330
1A0
100
AcDbEntity
  8
44
100
AcDbCircle
 10
25.908
 20
2.54
 30
0.0
 40
0.4064
  0
INSERT
  5
16A
330
1A0
100
AcDbEntity
  8
17
100
AcDbBlockReference
  2
LONGP100
 10
33.528
 20
2.54
 30
0.0
 41
1.3208
 42
1.3208
  0
INSERT
  5
16B
330
1A0
100
AcDbEntity
  8
17
100
AcDbBlockReference
  2
LONGP100
 10
33.528
 20
2.54
 30
0.0
 41
1.3208
 42
1.3208
  0
CIRCLE
  5
16C
330
1A0
100
AcDbEntity
  8
44
100
AcDbCircle
 10
33.528
 20
2.54
 30
0.0
 40
0.4064
  0
INSERT
  5
16D
330
1A0
100
AcDbEntity
  8
17
100
AcDbBlockReference
  2
LONGP100
 10
33.528
 20
5.08
 30
0.0
 41
1.3208
 42
1.3208
  0
INSERT
  5
16E
330
1A0
100
AcDbEntity
  8
17
100
AcDbBlockReference
  2
LONGP100
 10
33.528
 20
5.08
 30
0.0
 41
1.3208
 42
1.3208
  0
CIRCLE
  5
16F
330
1A0
100
AcDbEntity
  8
44
100
AcDbCircle
 10
33.528
 20
5.08
 30
0.0
 40
0.4064
  0
INSERT
  5
170
330
1A0
100
AcDbEntity
  8
17
100
AcDbBlockReference
  2
LONGP100
 10
33.528
 20
7.62
 30
0.0
 41
1.3208
 42
1.3208
  0
INSERT
  5
171
330
1A0
100
AcDbEntity
  8
17
100
AcDbBlockReference
  2
LONGP100
 10
33.528
 20
7.62
 30
0.0
 41
1.3208
 42
1.3208
  0
CIRCLE
  5
172
330
1A0
100
AcDbEntity
  8
44
100
AcDbCircle
 10
33.528
 20
7.62
 30
0.0
 40
0.4064
  0
INSERT
  5
173
330
1A0
100
AcDbEntity
  8
17
100
AcDbBlockReference
  2
LONGP100
 10
33.528
 20
10.16
 30
0.0
 41
1.3208
 42
1.3208
  0
INSERT
  5
174
330
1A0
100
AcDbEntity
  8
17
100
AcDbBlockReference
  2
LONGP100
 10
33.528
 20
10.16
 30
0.0
 41
1.3208
 42
1.3208
  0
CIRCLE
  5
175
330
1A0
100
AcDbEntity
  8
44
100
AcDbCircle
 10
33.528
 20
10.16
 30
0.0
 40
0.4064
  0
VIEWPORT
  5
1EC
330
19C
100
AcDbEntity
 67
     1
  8
0
 60
     1
100
AcDbViewport
 10
0.0
 20
0.0
 30
0.0
 40
10.0
 41
10.0
 69
     1
 12
0.0
 22
0.0
 13
0.0
 23
0.0
 14
1.0
 24
1.0
 15
0.0
 25
0.0
 16
0.0
 26
0.0
 36
1.0
 17
0.0
 27
0.0
 37
0.0
 42
0.0
 43
0.0
 44
0.0
 45
10.0
 50
0.0
 51
0.0000000000007958
 72
   100
 90
   163872
  1

281
     0
 71
     0
 74
     0
110
0.0
120
0.0
130
0.0
111
1.0
121
0.0
131
0.0
112
0.0
122
1.0
132
0.0
 79
     0
146
0.0
1001
VD_INVISIBLE_NOT_FOR_READ
1000
VD_INVISIBLE_NOT_FOR_READ
  0
VIEWPORT
  5
1ED
330
19C
100
AcDbEntity
 67
     1
  8
0
 60
     1
100
AcDbViewport
 10
0.0
 20
0.0
 30
0.0
 40
10.0
 41
10.0
 69
     2
 12
0.0
 22
0.0
 13
0.0
 23
0.0
 14
1.0
 24
1.0
 15
0.0
 25
0.0
 16
0.0
 26
0.0
 36
1.0
 17
0.0
 27
0.0
 37
0.0
 42
0.0
 43
0.0
 44
0.0
 45
10.0
 50
0.0
 51
0.0000000000007958
 72
   100
 90
   163872
  1

281
     0
 71
     0
 74
     0
110
0.0
120
0.0
130
0.0
111
1.0
121
0.0
131
0.0
112
0.0
122
1.0
132
0.0
 79
     0
146
0.0
1001
VD_INVISIBLE_NOT_FOR_READ
1000
VD_INVISIBLE_NOT_FOR_READ
  0
ENDSEC
  0
SECTION
  2
OBJECTS
  0
DICTIONARY
  5
18D
330
0
100
AcDbDictionary
281
     1
  3
ACAD_GROUP
350
18E
  3
ACAD_LAYOUT
350
19B
  3
ACAD_MLINESTYLE
350
198
  3
ACAD_PLOTSETTINGS
350
19A
  3
ACAD_PLOTSTYLENAME
350
18F
  3
VECTORDRAW_OBJECTS
350
1B0
  0
DICTIONARY
  5
18E
102
{ACAD_REACTORS
330
18D
102
}
330
18D
100
AcDbDictionary
281
     1
  0
DICTIONARY
  5
19B
102
{ACAD_REACTORS
330
18D
102
}
330
18D
100
AcDbDictionary
281
     1
  3
Layout1
350
19F
  3
Layout2
350
1A7
  3
Model
350
1A3
  0
DICTIONARY
  5
198
102
{ACAD_REACTORS
330
18D
102
}
330
18D
100
AcDbDictionary
281
     1
  3
Standard
350
199
  0
DICTIONARY
  5
19A
102
{ACAD_REACTORS
330
18D
102
}
330
18D
100
AcDbDictionary
281
     1
  0
ACDBDICTIONARYWDFLT
  5
18F
102
{ACAD_REACTORS
330
18D
102
}
330
18D
100
AcDbDictionary
281
     1
  3
Normal
350
190
100
AcDbDictionaryWithDefault
340
190
  0
DICTIONARY
  5
1B0
102
{ACAD_REACTORS
330
18D
102
}
330
18D
100
AcDbDictionary
281
     1
  3
SERIALNO
350
1B1
  0
LAYOUT
  5
19F
102
{ACAD_REACTORS
330
19B
102
}
330
19B
100
AcDbPlotSettings
  1
VectorDraw Printer Drawing
  2

  4

  6

 40
0.0
 41
0.0
 42
0.0
 43
0.0
 44
0.0
 45
0.0
 46
0.0
 47
0.0
 48
0.0
 49
0.0
140
0.0
141
0.0
142
1.0
143
1.0
 70
   688
 72
     0
 73
     0
 74
     5
  7

 75
    16
147
1.0
148
0.0
149
0.0
100
AcDbLayout
  1
Layout1
 70
     1
 71
     1
 10
0.0
 20
0.0
 11
12.0
 21
9.0
 12
0.0
 22
0.0
 32
0.0
 14
1.000000000000000E+20
 24
1.000000000000000E+20
 34
1.000000000000000E+20
 15
-1.000000000000000E+20
 25
-1.000000000000000E+20
 35
-1.000000000000000E+20
146
0.0
 13
0.0
 23
0.0
 33
0.0
 16
1.0
 26
0.0
 36
0.0
 17
0.0
 27
1.0
 37
0.0
 76
     0
330
19C
331
1EC
  0
LAYOUT
  5
1A7
102
{ACAD_REACTORS
330
19B
102
}
330
19B
100
AcDbPlotSettings
  1

  2

  4

  6

 40
0.0
 41
0.0
 42
0.0
 43
0.0
 44
0.0
 45
0.0
 46
0.0
 47
0.0
 48
0.0
 49
0.0
140
0.0
141
0.0
142
1.0
143
1.0
 70
   688
 72
     0
 73
     0
 74
     5
  7

 75
    16
147
1.0
148
0.0
149
0.0
100
AcDbLayout
  1
Layout2
 70
     1
 71
     2
 10
0.0
 20
0.0
 11
0.0
 21
0.0
 12
0.0
 22
0.0
 32
0.0
 14
0.0
 24
0.0
 34
0.0
 15
0.0
 25
0.0
 35
0.0
146
0.0
 13
0.0
 23
0.0
 33
0.0
 16
1.0
 26
0.0
 36
0.0
 17
0.0
 27
1.0
 37
0.0
 76
     0
330
1A4
  0
LAYOUT
  5
1A3
102
{ACAD_REACTORS
330
19B
102
}
330
19B
100
AcDbPlotSettings
  1
VectorDraw Printer Drawing
  2

  4

  6

 40
0.0
 41
0.0
 42
0.0
 43
0.0
 44
0.0
 45
0.0
 46
0.0
 47
0.0
 48
0.0
 49
0.0
140
0.0
141
0.0
142
1.0
143
1.0
 70
  1712
 72
     0
 73
     0
 74
     0
  7

 75
     0
147
1.0
148
0.0
149
0.0
100
AcDbLayout
  1
Model
 70
     1
 71
     0
 10
0.0
 20
0.0
 11
0.0
 21
0.0
 12
0.0
 22
0.0
 32
0.0
 14
-0.2032000000000012
 24
-0.9652000000000001
 34
-0.5
 15
46.7032
 25
19.7032
 35
0.5
146
0.0
 13
0.0
 23
0.0
 33
0.0
 16
1.0
 26
0.0
 36
0.0
 17
0.0
 27
1.0
 37
0.0
 76
     0
330
1A0
  0
MLINESTYLE
  5
199
102
{ACAD_REACTORS
330
198
102
}
330
198
100
AcDbMlineStyle
  2
Standard
 70
     0
  3

 62
   256
 51
90.0
 52
90.0
 71
     2
 49
0.5
 62
   256
  6
BYLAYER
 49
-0.5
 62
   256
  6
BYLAYER
  0
ACDBPLACEHOLDER
  5
190
102
{ACAD_REACTORS
330
18F
102
}
330
18F
  0
XRECORD
  5
1B1
102
{ACAD_REACTORS
330
1B0
102
}
330
1B0
100
AcDbXrecord
280
     1
1000
rInJVR9YY4Q8hfPWdUq5j5319
1070
     4
1070
     6
  0
ENDSEC
  0
EOF
